<?xml version="1.0" encoding="UTF-8"?>
<svg version="1.1" xmlns="http://www.w3.org/2000/svg" width="500" height="500">
<path d="M0 0 C4.72445966 3.3356262 7.01106969 6.19341273 9.5 11.5 C9.97215942 12.49 9.97215942 12.49 10.45385742 13.5 C11.19513477 15.05474926 11.93056687 16.61229265 12.66162109 18.171875 C14.2529938 21.53460055 15.88489153 24.87693385 17.51953125 28.21875 C18.46817956 30.16321613 19.41615222 32.10800974 20.36376953 34.05297852 C20.9909927 35.34019023 21.61875053 36.62714157 22.24707031 37.91381836 C31 55.86944223 31 55.86944223 31 60.6875 C29.54916711 64.04255105 27.90892679 65.78668614 25 68 C21.4375 68.625 21.4375 68.625 18 68 C15.70653602 65.84144567 14.33681219 63.7656109 13.0703125 60.88671875 C11.9000254 58.48207773 10.97844115 56.81540703 9 55 C3.60501544 53.96392615 -1.73708387 54.49811266 -7 56 C-7.23783203 57.44632812 -7.23783203 57.44632812 -7.48046875 58.921875 C-7.71378906 60.18515625 -7.94710937 61.4484375 -8.1875 62.75 C-8.40792969 64.00296875 -8.62835938 65.2559375 -8.85546875 66.546875 C-10.18799692 70.5671989 -11.39913489 71.85015016 -15 74 C-18.95571581 74.95146952 -22.241674 74.36267765 -25.875 72.625 C-28 71 -28 71 -30 69 C-30.29003906 70.03060547 -30.29003906 70.03060547 -30.5859375 71.08203125 C-30.84632813 71.98308594 -31.10671875 72.88414062 -31.375 73.8125 C-31.63023437 74.70582031 -31.88546875 75.59914063 -32.1484375 76.51953125 C-33 79 -33 79 -35 82 C-41.88863711 82.77774935 -41.88863711 82.77774935 -45.12109375 80.515625 C-47.74647596 77.00056026 -48.35894502 73.5671473 -49.1875 69.3125 C-49.35185547 68.54744141 -49.51621094 67.78238281 -49.68554688 66.99414062 C-50.79061199 61.68356457 -51.46731148 56.39683418 -52 51 C-54.72883399 53.04662549 -56.9244347 54.90082054 -59 57.625 C-61.27273483 60.32387261 -62.58538985 61.18699758 -66 62 C-70.9058904 61.7955879 -73.46348934 60.34534792 -77 57 C-78 55.66666667 -79 54.33333333 -80 53 C-80.66 53 -81.32 53 -82 53 C-81.98428955 53.71542969 -81.9685791 54.43085938 -81.95239258 55.16796875 C-81.88959253 58.44523039 -81.85086697 61.7223649 -81.8125 65 C-81.78736328 66.12535156 -81.76222656 67.25070312 -81.73632812 68.41015625 C-81.67230758 75.70849848 -81.80788552 82.23786508 -86.75 88.0625 C-90.34488073 89.56036697 -92.32054838 89.22648387 -96 88 C-102.66875 81.10952686 -102.15564644 71.70282844 -102.16796875 62.71484375 C-102.17129715 61.85492325 -102.17462555 60.99500275 -102.17805481 60.10902405 C-102.18308633 58.30307546 -102.18546431 56.4971177 -102.18530273 54.69116211 C-102.18749662 51.94173872 -102.20571263 49.1927124 -102.22460938 46.44335938 C-102.2275427 44.67968886 -102.2295279 42.91601646 -102.23046875 41.15234375 C-102.23765427 40.33861801 -102.24483978 39.52489227 -102.25224304 38.68650818 C-102.22773958 32.51825194 -101.57386874 27.24157064 -97.9375 22.0625 C-94.46182453 19.62213211 -92.50278065 19.26946043 -88.3359375 19.51171875 C-82.86305372 20.6557162 -78.79491332 24.27867515 -74.625 27.8125 C-72.31342361 30.2133948 -72.31342361 30.2133948 -70 30 C-68.54409654 27.91808003 -68.54409654 27.91808003 -67.125 25.3125 C-60.72938913 14.37507852 -60.72938913 14.37507852 -54 12 C-49.88280484 12 -47.77318741 12.39795769 -44.51171875 14.9375 C-41.185274 18.99338287 -39.90533094 23.03402543 -38.375 28 C-37.9272522 29.39871338 -37.9272522 29.39871338 -37.47045898 30.82568359 C-32 48.20668023 -32 48.20668023 -32 55 C-31.34 55 -30.68 55 -30 55 C-29.89977539 54.30140869 -29.79955078 53.60281738 -29.69628906 52.88305664 C-23.33020031 8.93755624 -23.33020031 8.93755624 -13.875 1.5625 C-9.19292436 -0.98210632 -5.10969133 -1.70024755 0 0 Z " fill="#84A39D" transform="translate(193,204)"/>
<path d="M0 0 C0.680625 -0.01675781 1.36125 -0.03351563 2.0625 -0.05078125 C4.60757998 0.42642125 5.36201111 1.33433491 7 3.3125 C9.10485198 10.00801675 7.38696702 16.59189874 5.75 23.1875 C3.33649586 33.51058188 1.50562195 43.82210967 0 54.3125 C0.66386719 54.01214844 1.32773437 53.71179688 2.01171875 53.40234375 C2.89472656 53.02207031 3.77773438 52.64179688 4.6875 52.25 C5.55761719 51.86714844 6.42773438 51.48429687 7.32421875 51.08984375 C10.36824695 50.20552023 12.0012014 50.36711603 15 51.3125 C18.70447994 54.17024167 19.81063954 56.85368545 21 61.3125 C21.27744955 64.13080336 21.28470614 66.91992769 21.25 69.75 C21.24468262 70.53117187 21.23936523 71.31234375 21.23388672 72.1171875 C20.90921045 92.40328955 20.90921045 92.40328955 17 96.3125 C14.625 96.75 14.625 96.75 12 96.3125 C8.30603716 92.51592708 6.9424782 89.29670369 6.68359375 84.08203125 C6.64169922 83.27958984 6.59980469 82.47714844 6.55664062 81.65039062 C6.51732422 80.81701172 6.47800781 79.98363281 6.4375 79.125 C6.39431641 78.28001953 6.35113281 77.43503906 6.30664062 76.56445312 C6.20068482 74.48065567 6.0998498 72.39659897 6 70.3125 C4.58847656 71.05306641 4.58847656 71.05306641 3.1484375 71.80859375 C1.8908464 72.45615932 0.63302136 73.10327071 -0.625 73.75 C-1.24246094 74.07548828 -1.85992187 74.40097656 -2.49609375 74.73632812 C-7.22571946 77.15092652 -11.36660642 78.74119198 -16.6875 77.875 C-20.27808152 75.4489314 -21.17993076 72.38741771 -22 68.3125 C-23.52055215 53.4610797 -19.50665022 38.51483477 -15.625 24.3125 C-15.34519287 23.27448242 -15.06538574 22.23646484 -14.77709961 21.16699219 C-8.7860203 0.04992057 -8.7860203 0.04992057 0 0 Z " fill="#84A39C" transform="translate(320,199.6875)"/>
<path d="M0 0 C1.92837254 3.01832224 2.00276905 4.84770246 1.9375 8.4375 C0.85371351 12.55588865 -0.8788895 15.18288419 -4 18 C-7.14914945 19.47873104 -10.17628977 20.57536424 -13.47265625 21.6328125 C-19.21516277 23.65139055 -22.27615083 26.55230167 -25 32 C-25.50641909 36.82344563 -25.50641909 36.82344563 -23.546875 41.07421875 C-19.37318627 44.23009075 -14.50856936 44.87450695 -9.46679688 45.97851562 C-3.48279164 47.43886859 -3.48279164 47.43886859 -0.9296875 50.40625 C0.69650544 54.94319166 -0.29498783 58.82621246 -1.75 63.3125 C-4.02507133 66.38384629 -6.48998729 67.64864713 -10.19921875 68.51171875 C-19.58829614 69.88249457 -27.3364924 67.19838641 -34.96484375 61.72265625 C-41.85172929 55.89325793 -46.29085192 47.81790871 -47.3828125 38.859375 C-47.78100563 27.65687494 -44.60540665 18.27131783 -37 10 C-27.96140579 0.84889217 -12.36814867 -8.34130957 0 0 Z " fill="#84A39C" transform="translate(293,207)"/>
<path d="M0 0 C0.84691406 0.0928125 1.69382812 0.185625 2.56640625 0.28125 C3.49259766 0.38953125 3.49259766 0.38953125 4.4375 0.5 C4.9325 2.975 4.9325 2.975 5.4375 5.5 C2.03390924 8.62762394 -1.17296964 10.8773023 -5.3125 12.9375 C-16.17670383 18.6531457 -26.02702141 27.1148316 -35.02148438 35.42138672 C-36.5625 36.5 -36.5625 36.5 -39.8125 36.625 C-42.8909248 35.3656444 -43.98294767 34.39584593 -45.5625 31.5 C-45.5625 30.84 -45.5625 30.18 -45.5625 29.5 C-48.33665366 30.05483073 -50.45875859 30.91612006 -53.0625 32.125 C-56.5625 33.5 -56.5625 33.5 -59 33.1875 C-59.515625 32.960625 -60.03125 32.73375 -60.5625 32.5 C-59.9025 31.51 -59.2425 30.52 -58.5625 29.5 C-58.8925 28.51 -59.2225 27.52 -59.5625 26.5 C-60.8825 26.83 -62.2025 27.16 -63.5625 27.5 C-63.5625 26.51 -63.5625 25.52 -63.5625 24.5 C-59.6025 23.015 -59.6025 23.015 -55.5625 21.5 C-55.2325 21.83 -54.9025 22.16 -54.5625 22.5 C-52.59319235 17.35577896 -52.59319235 17.35577896 -53.390625 12.10546875 C-54.15296899 10.57315733 -54.95877771 9.06146748 -55.8125 7.578125 C-56.5625 5.5 -56.5625 5.5 -56.0625 3.296875 C-53.86479157 0.66420344 -51.9311117 0.90514614 -48.5625 0.5 C-45.98776326 0.35553715 -43.43173764 0.24649429 -40.85546875 0.18359375 C-39.76822258 0.1524221 -39.76822258 0.1524221 -38.65901184 0.12062073 C-37.13202134 0.07758884 -35.60497438 0.03652034 -34.07788086 -0.00268555 C-31.76728009 -0.06205599 -29.45689832 -0.12715064 -27.14648438 -0.19335938 C-6.77517404 -0.76339989 -6.77517404 -0.76339989 0 0 Z " fill="#A8D3BC" transform="translate(161.5625,183.5)"/>
<path d="M0 0 C1.33151278 0.14419375 2.66359611 0.28317943 3.99609375 0.41796875 C5.41410505 0.56991598 6.83207385 0.72226022 8.25 0.875 C9.25994019 0.97397583 9.25994019 0.97397583 10.2902832 1.07495117 C14.74585392 1.59314324 18.17206318 2.65567183 22 5 C24 8 24 8 23.875 11.0625 C23 14 23 14 21.375 15.3125 C18.28682445 16.20644555 15.18185859 16.56611019 12 17 C12.01571045 17.70495605 12.0314209 18.40991211 12.04760742 19.13623047 C12.11061666 22.38240279 12.14919796 25.6284458 12.1875 28.875 C12.21263672 29.98359375 12.23777344 31.0921875 12.26367188 32.234375 C12.40204457 47.91661397 12.40204457 47.91661397 7.57495117 53.71044922 C5.07032999 55.76120245 3.20564652 56 0 56 C-2.875 54.25 -2.875 54.25 -5 51 C-5.80768932 43.36107915 -4.72302026 35.42863912 -4 27.8125 C-3.90460938 26.76513672 -3.80921875 25.71777344 -3.7109375 24.63867188 C-3.47836539 22.09200731 -3.24133075 19.54584685 -3 17 C-4.03060547 16.63648438 -4.03060547 16.63648438 -5.08203125 16.265625 C-6.43361328 15.76289063 -6.43361328 15.76289063 -7.8125 15.25 C-8.70582031 14.92515625 -9.59914062 14.6003125 -10.51953125 14.265625 C-13.30139597 12.84621686 -14.47199172 11.70574224 -16 9 C-16 5.04020108 -15.85971653 2.88744932 -13.0625 0 C-8.48981195 -1.49312263 -4.70063044 -0.68340392 0 0 Z " fill="#85A39D" transform="translate(229,204)"/>
<path d="M0 0 C-0.52464844 0.28230469 -1.04929688 0.56460938 -1.58984375 0.85546875 C-7.64701277 4.29223187 -13.17011352 8.27094336 -18.6875 12.5 C-19.7556897 13.31827271 -19.7556897 13.31827271 -20.84545898 14.15307617 C-24.85896031 17.2592663 -28.71724243 20.45643538 -32.44360352 23.90380859 C-34 25 -34 25 -37.25 25.125 C-40.3284248 23.8656444 -41.42044767 22.89584593 -43 20 C-43 19.34 -43 18.68 -43 18 C-43.99 17.67 -44.98 17.34 -46 17 C-46 13.92972415 -45.99328286 11.84776309 -45 9 C-42.60882029 6.748492 -39.95900386 5.3868576 -37 4 C-36.113125 3.566875 -35.22625 3.13375 -34.3125 2.6875 C-31.74655011 1.92465003 -29.66289583 1.77809201 -27 2 C-26.67 2.33 -26.34 2.66 -26 3 C-25.34 2.34 -24.68 1.68 -24 1 C-16.16556287 -2.33482151 -7.53804945 -5.0253663 0 0 Z " fill="#A9D3BA" transform="translate(159,195)"/>
<path d="M0 0 C0.99 0 1.98 0 3 0 C4.00410968 3.62387457 5.00258908 7.24927651 6 10.875 C6.28617188 11.90753906 6.57234375 12.94007813 6.8671875 14.00390625 C7.13789063 14.99003906 7.40859375 15.97617188 7.6875 16.9921875 C7.93886719 17.90339355 8.19023437 18.81459961 8.44921875 19.75341797 C9 22 9 22 9 24 C7.68 24.33 6.36 24.66 5 25 C3.68 20.38 2.36 15.76 1 11 C-0.32 15.29 -1.64 19.58 -3 24 C-8.74809183 22.56297704 -10.94005722 19.26293991 -15 15 C-14.01 19.95 -13.02 24.9 -12 30 C-13.65 29.67 -15.3 29.34 -17 29 C-17.84145956 25.91882573 -18.67173062 22.83474379 -19.5 19.75 C-19.73847656 18.87730469 -19.97695312 18.00460938 -20.22265625 17.10546875 C-20.44824219 16.26113281 -20.67382812 15.41679687 -20.90625 14.546875 C-21.11572266 13.77182617 -21.32519531 12.99677734 -21.54101562 12.19824219 C-22 10 -22 10 -22 6 C-18.81824697 5.66186945 -17.44820048 5.65440952 -14.8671875 7.64453125 C-13.88105469 8.71767578 -13.88105469 8.71767578 -12.875 9.8125 C-11.88113281 10.87404297 -11.88113281 10.87404297 -10.8671875 11.95703125 C-10.25101563 12.63121094 -9.63484375 13.30539063 -9 14 C-8.00558958 15.00555851 -7.00779387 16.0078551 -6 17 C-5.73445313 15.94039062 -5.46890625 14.88078125 -5.1953125 13.7890625 C-4.83890482 12.40094837 -4.48211404 11.01293257 -4.125 9.625 C-3.86396484 8.57699219 -3.86396484 8.57699219 -3.59765625 7.5078125 C-2.2265625 2.2265625 -2.2265625 2.2265625 0 0 Z " fill="#44655D" transform="translate(200,171)"/>
<path d="M0 0 C1.32 0 2.64 0 4 0 C4.75475351 8.35619957 5.13605482 16.60995285 5 25 C1.71590826 24.42683305 0.19511813 23.53366486 -2.015625 21.05859375 C-2.54414063 20.47529297 -3.07265625 19.89199219 -3.6171875 19.29101562 C-4.15601563 18.67935547 -4.69484375 18.06769531 -5.25 17.4375 C-5.80429688 16.82197266 -6.35859375 16.20644531 -6.9296875 15.57226562 C-8.29406545 14.05498325 -9.64805855 12.52837406 -11 11 C-11 15.95 -11 20.9 -11 26 C-12.32 26 -13.64 26 -15 26 C-16.10941367 20.67132017 -16.11548069 15.53718145 -16.0625 10.125 C-16.05798828 9.24585938 -16.05347656 8.36671875 -16.04882812 7.4609375 C-16.03712337 5.30726197 -16.01919069 3.15362183 -16 1 C-11.54870509 1.84545125 -9.86083486 3.9791699 -6.875 7.375 C-6.00617188 8.35210937 -5.13734375 9.32921875 -4.2421875 10.3359375 C-2 13 -2 13 0 16 C0 10.72 0 5.44 0 0 Z " fill="#43655D" transform="translate(252,165)"/>
<path d="M0 0 C2.9375 2.5 2.9375 2.5 5 5 C5.33 5.33 5.66 5.66 6 6 C6.55049967 11.29743125 6.61229183 15.70738391 4.3125 20.5625 C1.25004806 23.79048988 -0.66729227 24.9320158 -5.14453125 25.0625 C-9.50478367 24.83111015 -11.52889737 24.38277088 -15 21.5625 C-18.48031924 17.10334098 -18.54643018 13.53140724 -18 8 C-16.29783574 4.27144973 -14.15114129 0.95606279 -10.3125 -0.75 C-6.75479462 -1.1346168 -3.42364702 -1.01894257 0 0 Z M-10.875 4.4375 C-13.69620039 7.83953576 -14.1705637 10.63715999 -14 15 C-12.91429716 18.43805898 -12.10612788 18.92924808 -9 21 C-6.04230823 21.50010524 -6.04230823 21.50010524 -3 21 C-0.69724444 19.1329009 0.67823871 17.64352259 2 15 C2.26004123 11.48944334 2.38797265 8.86723298 0.9375 5.625 C-2.84684703 2.45103153 -6.54060066 2.27030033 -10.875 4.4375 Z " fill="#43645C" transform="translate(304,168)"/>
<path d="M0 0 C1.77395508 0.42466497 3.54410631 0.8652409 5.3125 1.3125 C6.29863281 1.55613281 7.28476562 1.79976562 8.30078125 2.05078125 C11.04664389 3.01640299 12.30721244 3.6618018 14 6 C14.64757709 12.04405286 14.64757709 12.04405286 12.6875 14.9375 C11 16 11 16 8 16 C8.28875 16.77085937 8.5775 17.54171875 8.875 18.3359375 C9.24625 19.33882812 9.6175 20.34171875 10 21.375 C10.556875 22.87160156 10.556875 22.87160156 11.125 24.3984375 C12 27 12 27 12 29 C8.80113168 28.06230828 7.32411288 27.50333809 5.48828125 24.65234375 C5.10027344 23.75644531 4.71226562 22.86054688 4.3125 21.9375 C2.92864394 18.25394643 2.92864394 18.25394643 0 16 C-0.66 18.97 -1.32 21.94 -2 25 C-3.32 25 -4.64 25 -6 25 C-2.09903382 2.09903382 -2.09903382 2.09903382 0 0 Z M3 5 C2.34 7.31 1.68 9.62 1 12 C2.17718985 13.40432936 2.17718985 13.40432936 5.5 13.125 C8.82281015 13.40432936 8.82281015 13.40432936 10 12 C10.04063832 10.33382885 10.042721 8.66611905 10 7 C7.35261084 5.5393715 6.10551666 5 3 5 Z " fill="#41635A" transform="translate(320,171)"/>
<path d="M0 0 C0 0.66 0 1.32 0 2 C-0.68924561 2.1858667 -1.37849121 2.3717334 -2.08862305 2.56323242 C-23.4424385 7.56401285 -23.4424385 7.56401285 -43 17 C-43.0450286 18.66605828 -43.03874921 20.33378384 -43 22 C-44.4375 25.1875 -44.4375 25.1875 -47 28 C-49.95784412 29.07419124 -52.88282074 29.61368291 -56 30 C-56.33 29.34 -56.66 28.68 -57 28 C-56.34 27.34 -55.68 26.68 -55 26 C-55.33 25.01 -55.66 24.02 -56 23 C-57.32 23.33 -58.64 23.66 -60 24 C-60 23.01 -60 22.02 -60 21 C-56.04 19.515 -56.04 19.515 -52 18 C-51.67 18.33 -51.34 18.66 -51 19 C-50.71125 18.21625 -50.4225 17.4325 -50.125 16.625 C-48.64303881 13.16709055 -47.14131735 12.09421157 -44 10 C-41.62107192 9.5402321 -39.27056889 9.15736988 -36.875 8.8125 C-27.780084 7.37838368 -19.03707736 4.90265098 -10.20458984 2.3371582 C-9.16898926 2.03640381 -8.13338867 1.73564941 -7.06640625 1.42578125 C-6.13771729 1.15161377 -5.20902832 0.87744629 -4.25219727 0.5949707 C-2 0 -2 0 0 0 Z " fill="#658F88" transform="translate(158,187)"/>
<path d="M0 0 C0 1.32 0 2.64 0 4 C-5.445 4.495 -5.445 4.495 -11 5 C-10.34 6.98 -9.68 8.96 -9 11 C-6.36 11 -3.72 11 -1 11 C-1 11.99 -1 12.98 -1 14 C-3.31 14.66 -5.62 15.32 -8 16 C-8.33 17.98 -8.66 19.96 -9 22 C-5.04 21.67 -1.08 21.34 3 21 C3 22.32 3 23.64 3 25 C-1.95 25.66 -6.9 26.32 -12 27 C-14.06297567 18.7480973 -15.02716362 10.4346984 -16 2 C-14.08404518 1.66259915 -12.16720278 1.33023588 -10.25 1 C-9.18265625 0.814375 -8.1153125 0.62875 -7.015625 0.4375 C-4 0 -4 0 0 0 Z " fill="#405E56" transform="translate(228,167)"/>
<path d="M0 0 C1.86398437 0.00386719 1.86398437 0.00386719 3.765625 0.0078125 C5.61414063 0.00394531 5.61414063 0.00394531 7.5 0 C10.48479227 0.11275882 13.12160762 0.43692282 16.015625 1.1328125 C16.015625 2.1228125 16.015625 3.1128125 16.015625 4.1328125 C13.705625 4.4628125 11.395625 4.7928125 9.015625 5.1328125 C8.685625 11.7328125 8.355625 18.3328125 8.015625 25.1328125 C6.365625 25.1328125 4.715625 25.1328125 3.015625 25.1328125 C2.87767546 18.06673059 3.26756783 11.15920665 4.015625 4.1328125 C1.705625 4.1328125 -0.604375 4.1328125 -2.984375 4.1328125 C-3.314375 3.1428125 -3.644375 2.1528125 -3.984375 1.1328125 C-2.984375 0.1328125 -2.984375 0.1328125 0 0 Z " fill="#45665E" transform="translate(265.984375,164.8671875)"/>
<path d="M0 0 C0.8353125 0.8971875 0.8353125 0.8971875 1.6875 1.8125 C3.86389888 4.08286802 3.86389888 4.08286802 6.5 5.25 C10.84085482 8.28859837 12.49285535 12.97142141 13.75 18 C13.87375 18.99 13.87375 18.99 14 20 C10.80113168 19.06230828 9.32411288 18.50333809 7.48828125 15.65234375 C7.10027344 14.75644531 6.71226562 13.86054688 6.3125 12.9375 C4.92864394 9.25394643 4.92864394 9.25394643 2 7 C1.34 9.97 0.68 12.94 0 16 C-1.32 16 -2.64 16 -4 16 C-3.71515154 14.26969709 -3.42180062 12.54079286 -3.125 10.8125 C-2.96257812 9.84957031 -2.80015625 8.88664063 -2.6328125 7.89453125 C-2.01960483 5.08967396 -1.14333657 2.62775253 0 0 Z " fill="#43655D" transform="translate(318,180)"/>
<path d="M0 0 C1.2684375 -0.061875 1.2684375 -0.061875 2.5625 -0.125 C3.366875 -0.08375 4.17125 -0.0425 5 0 C5.66 0.99 6.32 1.98 7 3 C4.22832981 8.54334038 4.22832981 8.54334038 0.73046875 9.84375 C-1.51050564 10.32370672 -3.72604935 10.7181856 -6 11 C-6.33 10.34 -6.66 9.68 -7 9 C-6.34 8.34 -5.68 7.68 -5 7 C-5.33 6.01 -5.66 5.02 -6 4 C-7.32 4.33 -8.64 4.66 -10 5 C-10 4.01 -10 3.02 -10 2 C-3.375 -1.125 -3.375 -1.125 0 0 Z " fill="#658EA0" transform="translate(108,206)"/>
<path d="M0 0 C0 1.32 0 2.64 0 4 C-1.17369141 4.18175781 -1.17369141 4.18175781 -2.37109375 4.3671875 C-3.88896484 4.61855469 -3.88896484 4.61855469 -5.4375 4.875 C-6.44683594 5.03742188 -7.45617187 5.19984375 -8.49609375 5.3671875 C-9.32238281 5.57601562 -10.14867187 5.78484375 -11 6 C-11.33 6.66 -11.66 7.32 -12 8 C-12.99 7.67 -13.98 7.34 -15 7 C-15.33 5.35 -15.66 3.7 -16 2 C-14.08404518 1.66259915 -12.16720278 1.33023588 -10.25 1 C-9.18265625 0.814375 -8.1153125 0.62875 -7.015625 0.4375 C-4 0 -4 0 0 0 Z " fill="#47665F" transform="translate(228,167)"/>
<path d="M0 0 C1.98 0.66 3.96 1.32 6 2 C6 2.99 6 3.98 6 5 C5.01 5 4.02 5 3 5 C2.814375 6.9490625 2.814375 6.9490625 2.625 8.9375 C2.4140625 11.15234375 2.4140625 11.15234375 2 13 C1.01 13.495 1.01 13.495 0 14 C-2.49103242 9.31099779 -1.92737868 6.05842916 -1 1 C-0.67 0.67 -0.34 0.34 0 0 Z " fill="#3F665E" transform="translate(320,171)"/>
<path d="M0 0 C0.66 0.33 1.32 0.66 2 1 C4.04498425 0.91219597 6.08744948 0.75758462 8.125 0.5625 C9.22070312 0.46066406 10.31640625 0.35882813 11.4453125 0.25390625 C12.28835937 0.17011719 13.13140625 0.08632812 14 0 C14 1.32 14 2.64 14 4 C4.58997722 5.33257403 4.58997722 5.33257403 0 4 C-0.33 3.01 -0.66 2.02 -1 1 C-0.67 0.67 -0.34 0.34 0 0 Z " fill="#44655D" transform="translate(217,188)"/>
<path d="M0 0 C0.99 0.33 1.98 0.66 3 1 C2.01 3.97 1.02 6.94 0 10 C-2.97 9.505 -2.97 9.505 -6 9 C-5.25 4.25 -5.25 4.25 -3 2 C-2.01 1.34 -1.02 0.68 0 0 Z " fill="#84A89F" transform="translate(114,197)"/>
<path d="M0 0 C0.33 1.32 0.66 2.64 1 4 C-0.32 4.99 -1.64 5.98 -3 7 C-3.33 6.67 -3.66 6.34 -4 6 C-4.66 7.32 -5.32 8.64 -6 10 C-6 9.34 -6 8.68 -6 8 C-7.98 8.99 -7.98 8.99 -10 10 C-8.64844718 5.57673622 -6.80109562 3.59587018 -3 1 C-2.01 0.67 -1.02 0.34 0 0 Z " fill="#829C96" transform="translate(139,216)"/>
<path d="M0 0 C-0.33 0.99 -0.66 1.98 -1 3 C-3.3984375 4.16796875 -3.3984375 4.16796875 -6.375 5.1875 C-7.84066406 5.70376953 -7.84066406 5.70376953 -9.3359375 6.23046875 C-12 7 -12 7 -15 7 C-15 6.34 -15 5.68 -15 5 C-13.25447527 4.15733289 -11.5033792 3.32619962 -9.75 2.5 C-8.77546875 2.0359375 -7.8009375 1.571875 -6.796875 1.09375 C-4 0 -4 0 0 0 Z " fill="#4B627A" transform="translate(104,201)"/>
<path d="M0 0 C3.03920174 3.03920174 3.44265837 3.73410982 4.1875 7.6875 C4.34605469 8.49574219 4.50460938 9.30398437 4.66796875 10.13671875 C4.77753906 10.75160156 4.88710937 11.36648437 5 12 C3.35 11.67 1.7 11.34 0 11 C0 7.37 0 3.74 0 0 Z " fill="#406159" transform="translate(183,189)"/>
<path d="M0 0 C4.33094958 0 6.27034861 0.96564469 10 3 C10 5 10 7 10 9 C6.78956118 7.61811547 4.95063635 6.07578097 2.75 3.375 C2.22921875 2.74335938 1.7084375 2.11171875 1.171875 1.4609375 C0.78515625 0.97882813 0.3984375 0.49671875 0 0 Z " fill="#476860" transform="translate(186,186)"/>
<path d="M0 0 C0 2.97 0 5.94 0 9 C-0.66 9 -1.32 9 -2 9 C-2 10.65 -2 12.3 -2 14 C-2.66 13.67 -3.32 13.34 -4 13 C-4.08121924 11.39667209 -4.13929134 9.79215974 -4.1875 8.1875 C-4.22230469 7.29417969 -4.25710937 6.40085937 -4.29296875 5.48046875 C-4 3 -4 3 -2.55078125 1.17578125 C-1 0 -1 0 0 0 Z " fill="#7C9995" transform="translate(164,262)"/>
<path d="M0 0 C0.99 0 1.98 0 3 0 C4.125 5.75 4.125 5.75 3 8 C2.01 7.67 1.02 7.34 0 7 C0 4.69 0 2.38 0 0 Z " fill="#395951" transform="translate(269,180)"/>
<path d="M0 0 C2.97 0.33 5.94 0.66 9 1 C8.01 2.485 8.01 2.485 7 4 C3.875 4.1875 3.875 4.1875 1 4 C0.67 2.68 0.34 1.36 0 0 Z " fill="#436962" transform="translate(291,188)"/>
<path d="M0 0 C1.98 0.66 3.96 1.32 6 2 C6 2.99 6 3.98 6 5 C5.01 5 4.02 5 3 5 C2.67 5.66 2.34 6.32 2 7 C2.33 5.35 2.66 3.7 3 2 C2.34 2.66 1.68 3.32 1 4 C0 5 -1 6 -2 7 C-1.34 4.69 -0.68 2.38 0 0 Z " fill="#35514B" transform="translate(320,171)"/>
<path d="M0 0 C-0.33 0.66 -0.66 1.32 -1 2 C-3.06640625 2.6328125 -3.06640625 2.6328125 -5.5625 3.125 C-6.80193359 3.37636719 -6.80193359 3.37636719 -8.06640625 3.6328125 C-8.70449219 3.75398437 -9.34257813 3.87515625 -10 4 C-10.33 3.34 -10.66 2.68 -11 2 C-7.17010894 0.19769832 -4.21878192 -0.19622241 0 0 Z " fill="#4D6483" transform="translate(112,213)"/>
<path d="M0 0 C0 0.66 0 1.32 0 2 C-3.61973402 3.31626692 -6.09567131 4 -10 4 C-10 3.34 -10 2.68 -10 2 C-6.38026598 0.68373308 -3.90432869 0 0 0 Z " fill="#3F5A77" transform="translate(102,196)"/>
<path d="M0 0 C1.32 0 2.64 0 4 0 C3.69381595 3.67420866 3.24228216 4.78135513 0.4375 7.3125 C-0.366875 7.869375 -1.17125 8.42625 -2 9 C-2.33 8.01 -2.66 7.02 -3 6 C-2.01 5.67 -1.02 5.34 0 5 C0.33 4.01 0.66 3.02 1 2 C0.67 1.34 0.34 0.68 0 0 Z " fill="#B3CDBB" transform="translate(163,185)"/>
<path d="M0 0 C2.15377564 2.62198774 3.40072174 4.64404172 4 8 C3.34 7.67 2.68 7.34 2 7 C1.67 7.99 1.34 8.98 1 10 C0.01 10 -0.98 10 -2 10 C-1.46274105 6.62294375 -0.88935377 3.303314 0 0 Z " fill="#3A5C54" transform="translate(253,173)"/>
<path d="M0 0 C0.33 0 0.66 0 1 0 C1 2.64 1 5.28 1 8 C-0.32 8 -1.64 8 -3 8 C-2.45276317 4.62537285 -1.9451 2.91765 0 0 Z " fill="#496860" transform="translate(317,188)"/>
<path d="M0 0 C0.99 0.33 1.98 0.66 3 1 C4.25 8.625 4.25 8.625 2 12 C1 9 1 9 2 6 C1.34 5.34 0.68 4.68 0 4 C0.66 4 1.32 4 2 4 C1.34 2.68 0.68 1.36 0 0 Z " fill="#839691" transform="translate(289,256)"/>
<path d="M0 0 C1.65 0.33 3.3 0.66 5 1 C4.34 2.65 3.68 4.3 3 6 C1.68 5.34 0.36 4.68 -1 4 C-0.67 2.68 -0.34 1.36 0 0 Z " fill="#9CD9AE" transform="translate(150,183)"/>
<path d="M0 0 C2.97 0.495 2.97 0.495 6 1 C6 1.66 6 2.32 6 3 C4.68 3 3.36 3 2 3 C2 3.66 2 4.32 2 5 C1.34 5 0.68 5 0 5 C-0.33 4.01 -0.66 3.02 -1 2 C-0.67 1.34 -0.34 0.68 0 0 Z " fill="#95A9A4" transform="translate(140,216)"/>
<path d="M0 0 C0 0.99 0 1.98 0 3 C-2.31 3.66 -4.62 4.32 -7 5 C-7 4.01 -7 3.02 -7 2 C-2.25 0 -2.25 0 0 0 Z " fill="#495E83" transform="translate(105,206)"/>
<path d="M0 0 C0 0.33 0 0.66 0 1 C-5.625 2.125 -5.625 2.125 -9 1 C-9.33 1.66 -9.66 2.32 -10 3 C-10 2.34 -10 1.68 -10 1 C-10.66 0.67 -11.32 0.34 -12 0 C-7.91556885 -1.53166168 -4.20544343 -0.63081652 0 0 Z " fill="#3D5751" transform="translate(304,168)"/>
<path d="M0 0 C0.99 0.33 1.98 0.66 3 1 C3.33 1.99 3.66 2.98 4 4 C2.35 4.33 0.7 4.66 -1 5 C-0.67 3.35 -0.34 1.7 0 0 Z " fill="#88A098" transform="translate(109,201)"/>
</svg>
