<svg width="1440" height="537" viewBox="0 0 1440 537" fill="none" xmlns="http://www.w3.org/2000/svg">
<path d="M673 259.542H524C513.507 259.542 505 268.048 505 278.542V305.116C505 315.609 496.493 324.116 486 324.116H337C326.507 324.116 318 332.622 318 343.116V370.436C318 380.929 309.493 389.436 299 389.436H150C139.507 389.436 131 397.943 131 408.436V435.01C131 445.503 122.493 454.01 112 454.01H-3V536.5H1440V0.5H1276C1263.3 0.5 1253 10.7975 1253 23.5V45.7006C1253 56.194 1244.49 64.7006 1234 64.7006H1085C1074.51 64.7006 1066 73.2072 1066 83.7006V110.648C1066 121.141 1057.49 129.648 1047 129.648H898C887.507 129.648 879 138.154 879 148.648V175.221C879 185.715 870.493 194.221 860 194.221H711C700.507 194.221 692 202.728 692 213.221V240.542C692 251.035 683.493 259.542 673 259.542Z" fill="#A8BFD5" stroke="#A8BFD5" stroke-linecap="round"/>
</svg>
