<svg width="331" height="266" viewBox="0 0 331 266" fill="none" xmlns="http://www.w3.org/2000/svg">
<path d="M129.886 18.5829C146.979 -6.19434 183.584 -6.19433 200.676 18.5829L228.586 59.0406C235.832 69.5442 247.368 76.2871 260.076 77.4458L292.338 80.3875C331.924 83.997 344.799 135.484 311.572 157.302V157.302C296.435 167.242 289.375 185.766 294.058 203.259L296.192 211.232C305.239 245.027 272.294 274.904 239.542 262.608L180.395 240.403C170.651 236.745 159.912 236.745 150.168 240.403L91.0211 262.608C58.2691 274.904 25.3238 245.026 34.3704 211.232L36.5047 203.259C41.1876 185.766 34.1279 167.242 18.9906 157.302V157.302C-14.2368 135.484 -1.3614 83.997 38.2247 80.3875L70.4864 77.4458C83.1941 76.2871 94.7309 69.5442 101.977 59.0406L129.886 18.5829Z" fill="#D9D9D9"/>
</svg>
