<svg width="1440" height="150" viewBox="0 0 1440 150" fill="none" xmlns="http://www.w3.org/2000/svg">
<path d="M957.327 43.0554C829.042 -34.9221 696.837 10.5648 646.771 43.0554C588.151 75.5461 438.842 121.033 310.557 43.0554C182.272 -34.9221 50.0668 10.5648 0 43.0554V106.945C50.0668 74.4539 182.272 28.967 310.557 106.945C438.842 184.922 588.151 139.435 646.771 106.945C696.837 74.4539 829.042 28.967 957.327 106.945C1085.61 184.922 1234.92 139.435 1293.54 106.945C1321.53 88.7828 1375.18 66.5602 1439.47 64.1113L1440 0.202197C1375.48 2.54785 1321.61 24.8433 1293.54 43.0554C1234.92 75.5461 1085.61 121.033 957.327 43.0554Z" fill="#A8D5BA"/>
<path d="M127.636 49.9173C125.758 50.1538 124.006 50.0115 122.382 49.4904C120.757 48.9693 119.341 48.1801 118.133 47.1227C116.921 46.039 115.999 44.7978 115.366 43.3993L118.088 41.9679C119.029 43.8921 120.294 45.2917 121.883 46.1667C123.468 47.0153 125.266 47.313 127.276 47.0598C128.546 46.8999 129.633 46.5616 130.535 46.0448C131.461 45.4982 132.141 44.8211 132.577 44.0137C133.013 43.2062 133.169 42.313 133.046 41.3341C132.863 39.8789 132.325 38.8044 131.431 38.1107C130.537 37.4169 129.323 36.9516 127.788 36.7149L122.27 35.7971C120.103 35.4518 118.361 34.6364 117.043 33.3509C115.752 32.0621 114.992 30.5049 114.762 28.6794C114.565 27.1184 114.776 25.6942 115.393 24.407C116.007 23.0933 116.932 22.0093 118.168 21.1548C119.431 20.297 120.909 19.7614 122.602 19.5482C124.375 19.325 126.004 19.4558 127.49 19.9407C128.998 20.3958 130.309 21.0908 131.421 22.0258C132.533 22.9609 133.383 24.05 133.969 25.2931L131.331 26.7541C130.476 25.0879 129.318 23.8899 127.855 23.1603C126.419 22.4273 124.801 22.1741 123.002 22.4007C121.864 22.5439 120.884 22.869 120.061 23.3758C119.264 23.8792 118.674 24.5314 118.291 25.3322C117.908 26.133 117.78 27.036 117.907 28.0414C118.06 29.2585 118.582 30.3082 119.473 31.1905C120.36 32.0464 121.627 32.6125 123.275 32.8888L128.132 33.6881C130.547 34.0828 132.432 34.8534 133.786 35.9999C135.139 37.1464 135.94 38.6986 136.186 40.6565C136.386 42.244 136.153 43.6979 135.486 45.0182C134.842 46.3087 133.836 47.3896 132.467 48.2607C131.125 49.1285 129.515 49.6807 127.636 49.9173Z" fill="black"/>
<path d="M147.362 47.7438L146.111 20.973L137.88 21.3578L137.74 18.3611L157.318 17.4459L157.458 20.4426L149.307 20.8236L150.559 47.5944L147.362 47.7438Z" fill="black"/>
<path d="M173.92 48.0561C171.841 47.985 169.909 47.5453 168.122 46.7371C166.363 45.9031 164.827 44.7833 163.514 43.3776C162.202 41.9453 161.192 40.2831 160.483 38.3911C159.775 36.4724 159.459 34.3937 159.535 32.155C159.612 29.9163 160.069 27.8774 160.905 26.0383C161.743 24.1725 162.865 22.5832 164.27 21.2705C165.677 19.9312 167.286 18.9189 169.097 18.2338C170.935 17.5496 172.893 17.243 174.972 17.3141C177.051 17.3852 178.97 17.8378 180.729 18.6717C182.516 19.48 184.065 20.6003 185.377 22.0326C186.689 23.4383 187.7 25.0872 188.409 26.9792C189.118 28.8712 189.435 30.9366 189.358 33.1753C189.281 35.414 188.824 37.4662 187.987 39.332C187.15 41.1711 186.028 42.7604 184.622 44.0997C183.216 45.4124 181.594 46.4242 179.755 47.1351C177.944 47.8202 175.999 48.1273 173.92 48.0561ZM174.023 45.0579C175.755 45.1172 177.338 44.8511 178.773 44.2598C180.234 43.6694 181.504 42.819 182.582 41.7086C183.661 40.5981 184.506 39.3063 185.116 37.833C185.754 36.3606 186.102 34.7715 186.16 33.0659C186.217 31.3868 185.978 29.7911 185.443 28.2786C184.935 26.7669 184.18 25.4204 183.18 24.2388C182.18 23.0573 180.971 22.122 179.554 21.4332C178.163 20.7452 176.602 20.3716 174.869 20.3124C173.137 20.2531 171.54 20.5187 170.079 21.1091C168.645 21.7004 167.388 22.5512 166.31 23.6617C165.231 24.7721 164.373 26.0635 163.736 27.5359C163.125 29.0092 162.791 30.5854 162.734 32.2644C162.675 33.9701 162.9 35.5787 163.409 37.0903C163.944 38.6029 164.712 39.9499 165.712 41.1315C166.712 42.313 167.921 43.2482 169.338 43.9371C170.756 44.6259 172.317 44.9995 174.023 45.0579Z" fill="black"/>
<path d="M193.186 48.8957L197.297 19.3806L207.439 20.7932C209.367 21.0617 211.004 21.6801 212.35 22.6484C213.7 23.5903 214.675 24.8031 215.276 26.2868C215.907 27.7479 216.098 29.3764 215.848 31.1724C215.597 32.9684 214.969 34.4829 213.963 35.7158C212.983 36.9525 211.713 37.8526 210.154 38.4162C208.625 38.9571 206.883 39.0914 204.928 38.8192L197.956 37.848L196.355 49.3371L193.186 48.8957ZM198.369 34.8767L205.501 35.8699C206.768 36.0465 207.911 35.9633 208.928 35.6203C209.949 35.2509 210.786 34.654 211.439 33.8296C212.096 32.9788 212.511 31.9327 212.684 30.6913C212.857 29.45 212.741 28.3435 212.338 27.3719C211.935 26.4004 211.291 25.6107 210.407 25.0028C209.526 24.3686 208.451 23.9632 207.184 23.7866L200.052 22.7934L198.369 34.8767Z" fill="black"/>
<path d="M347.343 112.663L357.371 84.6006L374.698 90.7922L373.688 93.6172L359.375 88.5025L355.889 98.2583L369.072 102.969L368.063 105.794L354.879 101.083L350.357 113.74L347.343 112.663Z" fill="black"/>
<path d="M370.007 120.571L378.255 91.9353L388.095 94.7695C389.966 95.3083 391.499 96.1522 392.694 97.3013C393.897 98.4247 394.691 99.7634 395.076 101.317C395.494 102.853 395.452 104.492 394.95 106.235C394.367 108.259 393.33 109.834 391.841 110.959C390.377 112.091 388.65 112.69 386.661 112.755L389.995 126.328L386.382 125.287L382.94 110.934L384.672 112.724L376.293 110.31L373.082 121.457L370.007 120.571ZM377.123 107.427L384.042 109.42C385.272 109.774 386.415 109.854 387.47 109.658C388.533 109.437 389.446 108.965 390.209 108.241C390.98 107.492 391.539 106.515 391.886 105.31C392.233 104.106 392.276 102.994 392.014 101.976C391.752 100.957 391.227 100.084 390.437 99.3569C389.655 98.6043 388.649 98.0509 387.419 97.6966L380.5 95.7038L377.123 107.427Z" fill="black"/>
<path d="M396.675 127.765L401.996 98.4436L420.888 101.872L420.352 104.824L404.609 101.967L402.759 112.16L417.715 114.874L417.179 117.826L402.224 115.112L400.36 125.384L416.103 128.241L415.567 131.193L396.675 127.765Z" fill="black"/>
<path d="M421.238 132.01L424.852 102.43L443.91 104.758L443.546 107.736L427.664 105.795L426.408 116.079L441.495 117.922L441.132 120.9L426.044 119.057L424.778 129.42L440.66 131.36L440.296 134.338L421.238 132.01Z" fill="black"/>
<path d="M447.167 125.317L447.301 122.52L461.285 123.187L461.151 125.984L447.167 125.317Z" fill="black"/>
<path d="M478.435 135.737C476.542 135.779 474.814 135.457 473.252 134.771C471.69 134.085 470.362 133.154 469.269 131.978C468.176 130.775 467.386 129.446 466.901 127.99L469.756 126.846C470.494 128.857 471.608 130.379 473.098 131.413C474.587 132.421 476.345 132.902 478.371 132.857C479.651 132.829 480.766 132.604 481.717 132.183C482.694 131.735 483.441 131.132 483.958 130.373C484.474 129.615 484.722 128.743 484.7 127.756C484.668 126.29 484.243 125.166 483.425 124.384C482.608 123.602 481.448 123.014 479.945 122.62L474.551 121.139C472.432 120.572 470.783 119.582 469.604 118.167C468.453 116.753 467.857 115.125 467.816 113.286C467.781 111.713 468.137 110.318 468.884 109.101C469.63 107.858 470.662 106.875 471.98 106.152C473.324 105.429 474.849 105.048 476.556 105.011C478.342 104.971 479.949 105.269 481.376 105.904C482.83 106.512 484.062 107.339 485.072 108.383C486.082 109.428 486.815 110.599 487.27 111.896L484.496 113.077C483.817 111.332 482.788 110.021 481.408 109.145C480.055 108.268 478.472 107.849 476.659 107.889C475.513 107.914 474.504 108.137 473.633 108.556C472.789 108.975 472.135 109.563 471.672 110.32C471.208 111.077 470.988 111.962 471.01 112.975C471.037 114.201 471.448 115.299 472.243 116.269C473.038 117.211 474.24 117.905 475.85 118.35L480.6 119.645C482.961 120.286 484.756 121.247 485.985 122.527C487.213 123.807 487.849 125.433 487.893 127.406C487.928 129.005 487.546 130.427 486.747 131.672C485.974 132.889 484.861 133.861 483.41 134.587C481.986 135.311 480.328 135.695 478.435 135.737Z" fill="black"/>
<path d="M500.573 134.164L498.21 107.468L490.002 108.195L489.737 105.207L509.261 103.478L509.525 106.466L501.397 107.186L503.761 133.882L500.573 134.164Z" fill="black"/>
<path d="M524.388 131.55L522.513 117.838L510.007 103.439L513.535 102.957L524.451 115.474L523.183 115.647L530.299 100.665L533.826 100.183L525.684 117.405L527.558 131.117L524.388 131.55Z" fill="black"/>
<path d="M541.796 128.81L535.954 99.5883L539.092 98.961L544.346 125.241L557.29 122.653L557.878 125.595L541.796 128.81Z" fill="black"/>
<path d="M563.052 124.326L555.893 95.3986L558.999 94.6298L566.158 123.557L563.052 124.326Z" fill="black"/>
<path d="M573.509 121.898L565.042 93.3263L567.727 92.5308L591.612 111.611L590.577 111.918L583.451 87.8716L586.52 86.9625L594.986 115.535L592.301 116.33L568.371 97.0961L569.406 96.7893L576.577 120.989L573.509 121.898Z" fill="black"/>
<path d="M616.323 108.416C614.357 109.173 612.419 109.52 610.508 109.456C608.588 109.367 606.773 108.923 605.065 108.124C603.372 107.29 601.854 106.132 600.511 104.649C599.168 103.166 598.094 101.38 597.288 99.2894C596.483 97.1992 596.081 95.1538 596.081 93.153C596.082 91.1523 596.43 89.2749 597.126 87.5207C597.847 85.757 598.894 84.2103 600.268 82.8808C601.632 81.5263 603.297 80.4704 605.263 79.7129C607.154 78.9842 608.975 78.6681 610.727 78.7646C612.504 78.8516 614.109 79.2335 615.541 79.9104C616.989 80.5528 618.162 81.3724 619.061 82.3693L616.877 84.7113C615.528 83.2877 613.945 82.3687 612.128 81.9544C610.311 81.5401 608.382 81.726 606.341 82.5123C604.301 83.2985 602.671 84.4837 601.453 86.0678C600.234 87.6519 599.513 89.4874 599.288 91.5744C599.054 93.6365 599.383 95.8247 600.274 98.1388C601.156 100.428 602.381 102.271 603.948 103.668C605.515 105.064 607.282 105.941 609.248 106.298C611.205 106.63 613.204 106.403 615.244 105.616C617.06 104.916 618.537 103.89 619.673 102.538C620.835 101.176 621.575 99.6476 621.893 97.953C622.202 96.2336 622.012 94.478 621.321 92.6864L620.732 91.1561L622.593 91.982L611.62 96.2105L610.613 93.5977L623.229 88.7365L624.12 91.0506C624.82 92.8671 625.144 94.6714 625.092 96.4634C625.03 98.2306 624.642 99.8946 623.929 101.455C623.216 103.016 622.207 104.405 620.904 105.621C619.617 106.804 618.089 107.735 616.323 108.416Z" fill="black"/>
<path d="M770.709 53.1661L768.703 39.4723L756.059 25.1944L759.581 24.6783L770.617 37.0895L769.351 37.2751L776.323 22.2254L779.845 21.7093L771.869 39.0084L773.875 52.7022L770.709 53.1661Z" fill="black"/>
<path d="M799 50.6276C796.925 50.7676 794.957 50.5262 793.098 49.9033C791.263 49.2521 789.622 48.2938 788.173 47.0284C786.723 45.7365 785.549 44.1854 784.652 42.375C783.753 40.538 783.228 38.5021 783.077 36.2672C782.926 34.0323 783.174 31.9576 783.82 30.0431C784.464 28.1019 785.418 26.4071 786.684 24.9586C787.947 23.4835 789.445 22.3134 791.177 21.4481C792.936 20.581 794.853 20.0774 796.929 19.9374C799.004 19.7973 800.959 20.0529 802.794 20.7042C804.653 21.327 806.308 22.2844 807.758 23.5764C809.207 24.8417 810.38 26.3796 811.277 28.1899C812.174 30.0003 812.698 32.0229 812.849 34.2578C813 36.4927 812.753 38.5808 812.109 40.5219C811.463 42.4364 810.509 44.1312 809.245 45.6063C807.98 47.0548 806.469 48.2259 804.711 49.1195C802.979 49.9848 801.075 50.4875 799 50.6276ZM798.798 47.6344C800.527 47.5176 802.076 47.0924 803.443 46.3587C804.836 45.6232 806.013 44.6484 806.974 43.4343C807.934 42.2202 808.644 40.8493 809.102 39.3217C809.586 37.7922 809.771 36.1761 809.656 34.4733C809.543 32.7971 809.144 31.2338 808.458 29.7834C807.799 28.3311 806.912 27.068 805.797 25.994C804.682 24.9199 803.385 24.1121 801.905 23.5705C800.452 23.0272 798.86 22.8138 797.131 22.9306C795.401 23.0473 793.84 23.4734 792.446 24.2089C791.079 24.9426 789.915 25.9165 788.955 27.1306C787.995 28.3447 787.272 29.7165 786.787 31.2459C786.329 32.7736 786.157 34.3755 786.27 36.0517C786.385 37.7545 786.772 39.332 787.431 40.7842C788.117 42.2347 789.017 43.4969 790.132 44.571C791.247 45.645 792.544 46.4528 794.024 46.9944C795.504 47.536 797.095 47.7493 798.798 47.6344Z" fill="black"/>
<path d="M828.427 50.3953C826.324 50.2819 824.497 49.7427 822.947 48.7778C821.396 47.8129 820.223 46.5478 819.426 44.9827C818.63 43.3908 818.286 41.6097 818.392 39.6392L819.474 19.5884L822.669 19.7607L821.587 39.8116C821.51 41.2495 821.748 42.5308 822.302 43.6556C822.883 44.7552 823.703 45.6407 824.762 46.312C825.849 46.9581 827.124 47.3207 828.589 47.3997C830.054 47.4787 831.347 47.2547 832.471 46.7278C833.622 46.1757 834.533 45.3836 835.203 44.3515C835.901 43.2942 836.288 42.0466 836.366 40.6087L837.448 20.5578L840.643 20.7302L839.561 40.781C839.455 42.7515 838.921 44.4853 837.959 45.9823C836.998 47.4527 835.695 48.5841 834.05 49.3767C832.432 50.1707 830.558 50.5102 828.427 50.3953Z" fill="black"/>
<path d="M845.603 51.0609L849.685 21.5417L859.828 22.9441C861.756 23.2107 863.394 23.8274 864.741 24.7943C866.091 25.7348 867.068 26.9467 867.671 28.4298C868.303 29.8902 868.495 31.5185 868.247 33.3148C867.959 35.4016 867.157 37.108 865.843 38.4338C864.556 39.7634 862.932 40.6023 860.973 40.9505L866.207 53.9095L862.483 53.3946L857.03 39.6785L859 41.2027L850.362 40.0085L848.773 51.4992L845.603 51.0609ZM850.773 37.0367L857.905 38.0228C859.173 38.1981 860.315 38.1137 861.332 37.7697C862.352 37.3993 863.189 36.8015 863.841 35.9765C864.497 35.125 864.911 34.0784 865.083 32.8369C865.254 31.5954 865.138 30.4891 864.734 29.5179C864.33 28.5467 863.685 27.7577 862.8 27.1507C861.918 26.5174 860.844 26.113 859.576 25.9377L852.443 24.9517L850.773 37.0367Z" fill="black"/>
<path d="M1096.79 130.34L1097.71 100.554L1100.91 100.652L1100.09 127.44L1113.28 127.845L1113.19 130.844L1096.79 130.34Z" fill="black"/>
<path d="M1118.35 130.828L1118.22 101.028L1121.42 101.015L1121.55 130.815L1118.35 130.828Z" fill="black"/>
<path d="M1129.16 130.795L1127.53 101.039L1145.9 100.031L1146.06 103.027L1130.89 103.86L1131.45 114.204L1145.43 113.437L1145.6 116.432L1131.62 117.2L1132.36 130.619L1129.16 130.795Z" fill="black"/>
<path d="M1154.15 129.269L1150.6 99.6822L1169.66 97.392L1170.02 100.371L1154.13 102.279L1155.37 112.565L1170.46 110.752L1170.82 113.731L1155.73 115.544L1156.97 125.909L1172.86 124.001L1173.22 126.979L1154.15 129.269Z" fill="black"/>
</svg>
